# xmcd
#
# Track frame offsets:
#	150
#	12279
#	22212
#	33189
#	43397
#	52526
#	61026
#	70395
#	80306
#	90619
#	100374
#	110409
#	121033
#	130958
#	138416
#	146543
#	157305
#	169197
#
# Disc length: 2403 seconds
#
# Revision: 0
# Processed by: cddbd v1.4PL0 Copyright (c) Steve Scherf et al.
# Submitted via: audiograbber 1.81.03
#
DISCID=f3096112
DTITLE=Johnny Cash - I Walk The Line (LP)
DYEAR=1900
DGENRE=
TTITLE0=I Walk The Line
TTITLE1=Rock Island Line
TTITLE2=Born To Lose
TTITLE3=Cry, Cry, Cry
TTITLE4=Straight A's In Love
TTITLE5=Remember Me
TTITLE6=I Forgot To Remember To Forget
TTITLE7=Luther's Boogie
TTITLE8=Ballad Of A Teenage Queen
TTITLE9=There You Go
TTITLE10=Get Rhythm
TTITLE11=Train Of Love
TTITLE12=Hey Porter
TTITLE13=Come In Stranger
TTITLE14=The Wreck Of The Old 97
TTITLE15=I Heard That Lonesome Whistle
TTITLE16=Home Of The Blues
TTITLE17=Wide Open Road
EXTD=
EXTT0=
EXTT1=
EXTT2=
EXTT3=
EXTT4=
EXTT5=
EXTT6=
EXTT7=
EXTT8=
EXTT9=
EXTT10=
EXTT11=
EXTT12=
EXTT13=
EXTT14=
EXTT15=
EXTT16=
EXTT17=
PLAYORDER=
